<?xml version="1.0" encoding="utf-8"?>
<!-- Generator: Adobe Illustrator 16.0.0, SVG Export Plug-In . SVG Version: 6.00 Build 0)  -->
<!DOCTYPE svg PUBLIC "-//W3C//DTD SVG 1.1//EN" "http://www.w3.org/Graphics/SVG/1.1/DTD/svg11.dtd">
<svg version="1.1" id="Layer_1" xmlns="http://www.w3.org/2000/svg" xmlns:xlink="http://www.w3.org/1999/xlink" x="0px" y="0px"
	 width="243px" height="35px" viewBox="0 0 243 35" enable-background="new 0 0 243 35" xml:space="preserve">
<path fill="#FFFFFF" d="M136.68,34.005h-5.662V0.001h5.662V34.005z"/>
<path fill="#FFFFFF" d="M170.83,34.005h-6.373L144.979,0.001h6.405l16.275,28.431l16.245-28.431h6.404L170.83,34.005z"/>
<path fill="#FFFFFF" d="M242.066,34.005H206.67c-2.729,0-5.064-0.973-7.011-2.919c-1.948-1.945-2.921-4.283-2.921-7.012
	c0-2.707,0.973-5.035,2.921-6.981c1.944-1.946,4.282-2.92,7.011-2.92h29.732v-2.846c0-1.581-0.545-2.92-1.631-4.018
	c-1.086-1.097-2.432-1.646-4.03-1.646h-31.157V0.001h31.157c2.073,0,3.973,0.51,5.69,1.527c1.719,1.018,3.088,2.386,4.105,4.104
	c1.018,1.721,1.523,3.618,1.523,5.693v22.68H242.066z M236.404,28.343v-8.508h-29.733c-1.207,0-2.22,0.405-3.04,1.215
	s-1.23,1.819-1.23,3.024c0,1.207,0.41,2.219,1.23,3.039s1.833,1.229,3.04,1.229L236.404,28.343L236.404,28.343z"/>
<path fill="#FFFFFF" d="M11.325,0.001c-2.075,0-3.974,0.51-5.693,1.528C3.913,2.547,2.545,3.915,1.525,5.634
	C0.51,7.354,0,9.251,0,11.326v22.679h5.662v-5.662v-5.259v-3.25h23.819v-5.662H5.662v-2.846c0-1.581,0.545-2.92,1.631-4.017
	s2.43-1.646,4.032-1.646h31.157V0L11.325,0.001L11.325,0.001z"/>
<path fill="#FFFFFF" d="M117.504,18.877c0,0.848-0.686,1.534-1.533,1.534h-3.75c-0.847,0-1.534-0.687-1.534-1.534v-3.749
	c0-0.847,0.687-1.534,1.534-1.534h3.75c0.847,0,1.533,0.688,1.533,1.534V18.877z"/>
<path fill="#FFFFFF" d="M57.709,32.402c-1.703-0.854-3.078-2.019-4.125-3.494c-1.047-1.477-1.571-3.166-1.571-5.064
	c0-1.896,0.523-3.582,1.571-5.049c1.047-1.468,2.422-2.627,4.125-3.479c1.703-0.851,3.542-1.277,5.519-1.277h22.458
	c1.135,0,2.124-0.206,2.965-0.616c0.842-0.411,1.493-0.939,1.952-1.585c0.46-0.646,0.69-1.311,0.69-1.996
	c0-0.705-0.23-1.379-0.69-2.026c-0.459-0.646-1.11-1.175-1.952-1.585c-0.841-0.411-1.83-0.617-2.965-0.617H52.013V0.007h33.672
	c1.957,0,3.792,0.426,5.504,1.277c1.713,0.852,3.093,2.016,4.139,3.494c1.047,1.478,1.571,3.166,1.571,5.064
	c0,1.879-0.523,3.557-1.571,5.035c-1.047,1.478-2.427,2.642-4.139,3.494c-1.712,0.852-3.547,1.275-5.504,1.275H63.228
	c-1.135,0-2.123,0.207-2.965,0.617c-0.841,0.409-1.492,0.938-1.952,1.584c-0.459,0.646-0.69,1.312-0.69,1.995
	c0,0.688,0.23,1.354,0.69,2.013c0.46,0.655,1.11,1.188,1.952,1.601c0.841,0.412,1.831,0.617,2.965,0.617H96.9v5.606H63.228
	C61.251,33.68,59.411,33.254,57.709,32.402z"/>
</svg>
